<?xml version="1.0" encoding="utf-8" standalone="no"?>
<!DOCTYPE svg PUBLIC "-//W3C//DTD SVG 1.1//EN"
  "http://www.w3.org/Graphics/SVG/1.1/DTD/svg11.dtd">
<svg height="220.242031pt" version="1.1" viewBox="0 0 289.451875 220.242031" width="289.451875pt" xmlns="http://www.w3.org/2000/svg" xmlns:xlink="http://www.w3.org/1999/xlink">
 <metadata>
  <rdf:RDF xmlns:cc="http://creativecommons.org/ns#" xmlns:dc="http://purl.org/dc/elements/1.1/" xmlns:rdf="http://www.w3.org/1999/02/22-rdf-syntax-ns#">
   <cc:Work>
    <dc:type rdf:resource="http://purl.org/dc/dcmitype/StillImage"/>
    <dc:date>2021-09-22T22:28:56.893400</dc:date>
    <dc:format>image/svg+xml</dc:format>
    <dc:creator>
     <cc:Agent>
      <dc:title>Matplotlib v3.4.2, https://matplotlib.org/</dc:title>
     </cc:Agent>
    </dc:creator>
   </cc:Work>
  </rdf:RDF>
 </metadata>
 <defs>
  <style type="text/css">*{stroke-linecap:butt;stroke-linejoin:round;}</style>
 </defs>
 <g id="figure_1">
  <g id="patch_1">
   <path d="M -0 220.242031 
L 289.451875 220.242031 
L 289.451875 0 
L -0 0 
z
" style="fill:none;"/>
  </g>
  <g id="axes_1">
   <g id="patch_2">
    <path d="M 73.750938 176.507656 
L 241.150938 176.507656 
L 241.150938 10.187656 
L 73.750938 10.187656 
z
" style="fill:none;"/>
   </g>
   <g id="matplotlib.axis_1">
    <g id="xtick_1">
     <g id="line2d_1">
      <defs>
       <path d="M 0 0 
L 0 -3.5 
" id="m0d4ca00a29" style="stroke:#000000;stroke-width:0.8;"/>
      </defs>
      <g>
       <use style="stroke:#000000;stroke-width:0.8;" x="81.360028" xlink:href="#m0d4ca00a29" y="176.507656"/>
      </g>
     </g>
     <g id="text_1">
      <!-- 0 -->
      <g transform="translate(74.997528 195.204531)scale(0.2 -0.2)">
       <defs>
        <path d="M 2034 4250 
Q 1547 4250 1301 3770 
Q 1056 3291 1056 2328 
Q 1056 1369 1301 889 
Q 1547 409 2034 409 
Q 2525 409 2770 889 
Q 3016 1369 3016 2328 
Q 3016 3291 2770 3770 
Q 2525 4250 2034 4250 
z
M 2034 4750 
Q 2819 4750 3233 4129 
Q 3647 3509 3647 2328 
Q 3647 1150 3233 529 
Q 2819 -91 2034 -91 
Q 1250 -91 836 529 
Q 422 1150 422 2328 
Q 422 3509 836 4129 
Q 1250 4750 2034 4750 
z
" id="DejaVuSans-30" transform="scale(0.015625)"/>
       </defs>
       <use xlink:href="#DejaVuSans-30"/>
      </g>
     </g>
    </g>
    <g id="xtick_2">
     <g id="line2d_2">
      <g>
       <use style="stroke:#000000;stroke-width:0.8;" x="233.541847" xlink:href="#m0d4ca00a29" y="176.507656"/>
      </g>
     </g>
     <g id="text_2">
      <!-- 800 -->
      <g transform="translate(214.454347 195.204531)scale(0.2 -0.2)">
       <defs>
        <path d="M 2034 2216 
Q 1584 2216 1326 1975 
Q 1069 1734 1069 1313 
Q 1069 891 1326 650 
Q 1584 409 2034 409 
Q 2484 409 2743 651 
Q 3003 894 3003 1313 
Q 3003 1734 2745 1975 
Q 2488 2216 2034 2216 
z
M 1403 2484 
Q 997 2584 770 2862 
Q 544 3141 544 3541 
Q 544 4100 942 4425 
Q 1341 4750 2034 4750 
Q 2731 4750 3128 4425 
Q 3525 4100 3525 3541 
Q 3525 3141 3298 2862 
Q 3072 2584 2669 2484 
Q 3125 2378 3379 2068 
Q 3634 1759 3634 1313 
Q 3634 634 3220 271 
Q 2806 -91 2034 -91 
Q 1263 -91 848 271 
Q 434 634 434 1313 
Q 434 1759 690 2068 
Q 947 2378 1403 2484 
z
M 1172 3481 
Q 1172 3119 1398 2916 
Q 1625 2713 2034 2713 
Q 2441 2713 2670 2916 
Q 2900 3119 2900 3481 
Q 2900 3844 2670 4047 
Q 2441 4250 2034 4250 
Q 1625 4250 1398 4047 
Q 1172 3844 1172 3481 
z
" id="DejaVuSans-38" transform="scale(0.015625)"/>
       </defs>
       <use xlink:href="#DejaVuSans-38"/>
       <use x="63.623047" xlink:href="#DejaVuSans-30"/>
       <use x="127.246094" xlink:href="#DejaVuSans-30"/>
      </g>
     </g>
    </g>
    <g id="text_3">
     <!-- Time (sec) -->
     <g transform="translate(131.29625 210.962344)scale(0.1 -0.1)">
      <defs>
       <path d="M -19 4666 
L 3928 4666 
L 3928 4134 
L 2272 4134 
L 2272 0 
L 1638 0 
L 1638 4134 
L -19 4134 
L -19 4666 
z
" id="DejaVuSans-54" transform="scale(0.015625)"/>
       <path d="M 603 3500 
L 1178 3500 
L 1178 0 
L 603 0 
L 603 3500 
z
M 603 4863 
L 1178 4863 
L 1178 4134 
L 603 4134 
L 603 4863 
z
" id="DejaVuSans-69" transform="scale(0.015625)"/>
       <path d="M 3328 2828 
Q 3544 3216 3844 3400 
Q 4144 3584 4550 3584 
Q 5097 3584 5394 3201 
Q 5691 2819 5691 2113 
L 5691 0 
L 5113 0 
L 5113 2094 
Q 5113 2597 4934 2840 
Q 4756 3084 4391 3084 
Q 3944 3084 3684 2787 
Q 3425 2491 3425 1978 
L 3425 0 
L 2847 0 
L 2847 2094 
Q 2847 2600 2669 2842 
Q 2491 3084 2119 3084 
Q 1678 3084 1418 2786 
Q 1159 2488 1159 1978 
L 1159 0 
L 581 0 
L 581 3500 
L 1159 3500 
L 1159 2956 
Q 1356 3278 1631 3431 
Q 1906 3584 2284 3584 
Q 2666 3584 2933 3390 
Q 3200 3197 3328 2828 
z
" id="DejaVuSans-6d" transform="scale(0.015625)"/>
       <path d="M 3597 1894 
L 3597 1613 
L 953 1613 
Q 991 1019 1311 708 
Q 1631 397 2203 397 
Q 2534 397 2845 478 
Q 3156 559 3463 722 
L 3463 178 
Q 3153 47 2828 -22 
Q 2503 -91 2169 -91 
Q 1331 -91 842 396 
Q 353 884 353 1716 
Q 353 2575 817 3079 
Q 1281 3584 2069 3584 
Q 2775 3584 3186 3129 
Q 3597 2675 3597 1894 
z
M 3022 2063 
Q 3016 2534 2758 2815 
Q 2500 3097 2075 3097 
Q 1594 3097 1305 2825 
Q 1016 2553 972 2059 
L 3022 2063 
z
" id="DejaVuSans-65" transform="scale(0.015625)"/>
       <path id="DejaVuSans-20" transform="scale(0.015625)"/>
       <path d="M 1984 4856 
Q 1566 4138 1362 3434 
Q 1159 2731 1159 2009 
Q 1159 1288 1364 580 
Q 1569 -128 1984 -844 
L 1484 -844 
Q 1016 -109 783 600 
Q 550 1309 550 2009 
Q 550 2706 781 3412 
Q 1013 4119 1484 4856 
L 1984 4856 
z
" id="DejaVuSans-28" transform="scale(0.015625)"/>
       <path d="M 2834 3397 
L 2834 2853 
Q 2591 2978 2328 3040 
Q 2066 3103 1784 3103 
Q 1356 3103 1142 2972 
Q 928 2841 928 2578 
Q 928 2378 1081 2264 
Q 1234 2150 1697 2047 
L 1894 2003 
Q 2506 1872 2764 1633 
Q 3022 1394 3022 966 
Q 3022 478 2636 193 
Q 2250 -91 1575 -91 
Q 1294 -91 989 -36 
Q 684 19 347 128 
L 347 722 
Q 666 556 975 473 
Q 1284 391 1588 391 
Q 1994 391 2212 530 
Q 2431 669 2431 922 
Q 2431 1156 2273 1281 
Q 2116 1406 1581 1522 
L 1381 1569 
Q 847 1681 609 1914 
Q 372 2147 372 2553 
Q 372 3047 722 3315 
Q 1072 3584 1716 3584 
Q 2034 3584 2315 3537 
Q 2597 3491 2834 3397 
z
" id="DejaVuSans-73" transform="scale(0.015625)"/>
       <path d="M 3122 3366 
L 3122 2828 
Q 2878 2963 2633 3030 
Q 2388 3097 2138 3097 
Q 1578 3097 1268 2742 
Q 959 2388 959 1747 
Q 959 1106 1268 751 
Q 1578 397 2138 397 
Q 2388 397 2633 464 
Q 2878 531 3122 666 
L 3122 134 
Q 2881 22 2623 -34 
Q 2366 -91 2075 -91 
Q 1284 -91 818 406 
Q 353 903 353 1747 
Q 353 2603 823 3093 
Q 1294 3584 2113 3584 
Q 2378 3584 2631 3529 
Q 2884 3475 3122 3366 
z
" id="DejaVuSans-63" transform="scale(0.015625)"/>
       <path d="M 513 4856 
L 1013 4856 
Q 1481 4119 1714 3412 
Q 1947 2706 1947 2009 
Q 1947 1309 1714 600 
Q 1481 -109 1013 -844 
L 513 -844 
Q 928 -128 1133 580 
Q 1338 1288 1338 2009 
Q 1338 2731 1133 3434 
Q 928 4138 513 4856 
z
" id="DejaVuSans-29" transform="scale(0.015625)"/>
      </defs>
      <use xlink:href="#DejaVuSans-54"/>
      <use x="57.958984" xlink:href="#DejaVuSans-69"/>
      <use x="85.742188" xlink:href="#DejaVuSans-6d"/>
      <use x="183.154297" xlink:href="#DejaVuSans-65"/>
      <use x="244.677734" xlink:href="#DejaVuSans-20"/>
      <use x="276.464844" xlink:href="#DejaVuSans-28"/>
      <use x="315.478516" xlink:href="#DejaVuSans-73"/>
      <use x="367.578125" xlink:href="#DejaVuSans-65"/>
      <use x="429.101562" xlink:href="#DejaVuSans-63"/>
      <use x="484.082031" xlink:href="#DejaVuSans-29"/>
     </g>
    </g>
   </g>
   <g id="matplotlib.axis_2">
    <g id="ytick_1">
     <g id="line2d_3">
      <defs>
       <path d="M 0 0 
L 3.5 0 
" id="mf564facaa5" style="stroke:#000000;stroke-width:0.8;"/>
      </defs>
      <g>
       <use style="stroke:#000000;stroke-width:0.8;" x="73.750938" xlink:href="#mf564facaa5" y="168.952151"/>
      </g>
     </g>
     <g id="text_4">
      <!-- 0 -->
      <g transform="translate(57.525938 176.550588)scale(0.2 -0.2)">
       <use xlink:href="#DejaVuSans-30"/>
      </g>
     </g>
    </g>
    <g id="ytick_2">
     <g id="line2d_4">
      <g>
       <use style="stroke:#000000;stroke-width:0.8;" x="73.750938" xlink:href="#mf564facaa5" y="17.961542"/>
      </g>
     </g>
     <g id="text_5">
      <!-- 266 -->
      <g transform="translate(32.075938 25.55998)scale(0.2 -0.2)">
       <defs>
        <path d="M 1228 531 
L 3431 531 
L 3431 0 
L 469 0 
L 469 531 
Q 828 903 1448 1529 
Q 2069 2156 2228 2338 
Q 2531 2678 2651 2914 
Q 2772 3150 2772 3378 
Q 2772 3750 2511 3984 
Q 2250 4219 1831 4219 
Q 1534 4219 1204 4116 
Q 875 4013 500 3803 
L 500 4441 
Q 881 4594 1212 4672 
Q 1544 4750 1819 4750 
Q 2544 4750 2975 4387 
Q 3406 4025 3406 3419 
Q 3406 3131 3298 2873 
Q 3191 2616 2906 2266 
Q 2828 2175 2409 1742 
Q 1991 1309 1228 531 
z
" id="DejaVuSans-32" transform="scale(0.015625)"/>
        <path d="M 2113 2584 
Q 1688 2584 1439 2293 
Q 1191 2003 1191 1497 
Q 1191 994 1439 701 
Q 1688 409 2113 409 
Q 2538 409 2786 701 
Q 3034 994 3034 1497 
Q 3034 2003 2786 2293 
Q 2538 2584 2113 2584 
z
M 3366 4563 
L 3366 3988 
Q 3128 4100 2886 4159 
Q 2644 4219 2406 4219 
Q 1781 4219 1451 3797 
Q 1122 3375 1075 2522 
Q 1259 2794 1537 2939 
Q 1816 3084 2150 3084 
Q 2853 3084 3261 2657 
Q 3669 2231 3669 1497 
Q 3669 778 3244 343 
Q 2819 -91 2113 -91 
Q 1303 -91 875 529 
Q 447 1150 447 2328 
Q 447 3434 972 4092 
Q 1497 4750 2381 4750 
Q 2619 4750 2861 4703 
Q 3103 4656 3366 4563 
z
" id="DejaVuSans-36" transform="scale(0.015625)"/>
       </defs>
       <use xlink:href="#DejaVuSans-32"/>
       <use x="63.623047" xlink:href="#DejaVuSans-36"/>
       <use x="127.246094" xlink:href="#DejaVuSans-36"/>
      </g>
     </g>
    </g>
    <g id="text_6">
     <!-- Output -->
     <g transform="translate(14.798438 110.715625)rotate(-90)scale(0.1 -0.1)">
      <defs>
       <path d="M 2522 4238 
Q 1834 4238 1429 3725 
Q 1025 3213 1025 2328 
Q 1025 1447 1429 934 
Q 1834 422 2522 422 
Q 3209 422 3611 934 
Q 4013 1447 4013 2328 
Q 4013 3213 3611 3725 
Q 3209 4238 2522 4238 
z
M 2522 4750 
Q 3503 4750 4090 4092 
Q 4678 3434 4678 2328 
Q 4678 1225 4090 567 
Q 3503 -91 2522 -91 
Q 1538 -91 948 565 
Q 359 1222 359 2328 
Q 359 3434 948 4092 
Q 1538 4750 2522 4750 
z
" id="DejaVuSans-4f" transform="scale(0.015625)"/>
       <path d="M 544 1381 
L 544 3500 
L 1119 3500 
L 1119 1403 
Q 1119 906 1312 657 
Q 1506 409 1894 409 
Q 2359 409 2629 706 
Q 2900 1003 2900 1516 
L 2900 3500 
L 3475 3500 
L 3475 0 
L 2900 0 
L 2900 538 
Q 2691 219 2414 64 
Q 2138 -91 1772 -91 
Q 1169 -91 856 284 
Q 544 659 544 1381 
z
M 1991 3584 
L 1991 3584 
z
" id="DejaVuSans-75" transform="scale(0.015625)"/>
       <path d="M 1172 4494 
L 1172 3500 
L 2356 3500 
L 2356 3053 
L 1172 3053 
L 1172 1153 
Q 1172 725 1289 603 
Q 1406 481 1766 481 
L 2356 481 
L 2356 0 
L 1766 0 
Q 1100 0 847 248 
Q 594 497 594 1153 
L 594 3053 
L 172 3053 
L 172 3500 
L 594 3500 
L 594 4494 
L 1172 4494 
z
" id="DejaVuSans-74" transform="scale(0.015625)"/>
       <path d="M 1159 525 
L 1159 -1331 
L 581 -1331 
L 581 3500 
L 1159 3500 
L 1159 2969 
Q 1341 3281 1617 3432 
Q 1894 3584 2278 3584 
Q 2916 3584 3314 3078 
Q 3713 2572 3713 1747 
Q 3713 922 3314 415 
Q 2916 -91 2278 -91 
Q 1894 -91 1617 61 
Q 1341 213 1159 525 
z
M 3116 1747 
Q 3116 2381 2855 2742 
Q 2594 3103 2138 3103 
Q 1681 3103 1420 2742 
Q 1159 2381 1159 1747 
Q 1159 1113 1420 752 
Q 1681 391 2138 391 
Q 2594 391 2855 752 
Q 3116 1113 3116 1747 
z
" id="DejaVuSans-70" transform="scale(0.015625)"/>
      </defs>
      <use xlink:href="#DejaVuSans-4f"/>
      <use x="78.710938" xlink:href="#DejaVuSans-75"/>
      <use x="142.089844" xlink:href="#DejaVuSans-74"/>
      <use x="181.298828" xlink:href="#DejaVuSans-70"/>
      <use x="244.775391" xlink:href="#DejaVuSans-75"/>
      <use x="308.154297" xlink:href="#DejaVuSans-74"/>
     </g>
     <!-- Bmh/Mksp (nM) -->
     <g transform="translate(25.99625 132.463281)rotate(-90)scale(0.1 -0.1)">
      <defs>
       <path d="M 1259 2228 
L 1259 519 
L 2272 519 
Q 2781 519 3026 730 
Q 3272 941 3272 1375 
Q 3272 1813 3026 2020 
Q 2781 2228 2272 2228 
L 1259 2228 
z
M 1259 4147 
L 1259 2741 
L 2194 2741 
Q 2656 2741 2882 2914 
Q 3109 3088 3109 3444 
Q 3109 3797 2882 3972 
Q 2656 4147 2194 4147 
L 1259 4147 
z
M 628 4666 
L 2241 4666 
Q 2963 4666 3353 4366 
Q 3744 4066 3744 3513 
Q 3744 3084 3544 2831 
Q 3344 2578 2956 2516 
Q 3422 2416 3680 2098 
Q 3938 1781 3938 1306 
Q 3938 681 3513 340 
Q 3088 0 2303 0 
L 628 0 
L 628 4666 
z
" id="DejaVuSans-42" transform="scale(0.015625)"/>
       <path d="M 3513 2113 
L 3513 0 
L 2938 0 
L 2938 2094 
Q 2938 2591 2744 2837 
Q 2550 3084 2163 3084 
Q 1697 3084 1428 2787 
Q 1159 2491 1159 1978 
L 1159 0 
L 581 0 
L 581 4863 
L 1159 4863 
L 1159 2956 
Q 1366 3272 1645 3428 
Q 1925 3584 2291 3584 
Q 2894 3584 3203 3211 
Q 3513 2838 3513 2113 
z
" id="DejaVuSans-68" transform="scale(0.015625)"/>
       <path d="M 1625 4666 
L 2156 4666 
L 531 -594 
L 0 -594 
L 1625 4666 
z
" id="DejaVuSans-2f" transform="scale(0.015625)"/>
       <path d="M 628 4666 
L 1569 4666 
L 2759 1491 
L 3956 4666 
L 4897 4666 
L 4897 0 
L 4281 0 
L 4281 4097 
L 3078 897 
L 2444 897 
L 1241 4097 
L 1241 0 
L 628 0 
L 628 4666 
z
" id="DejaVuSans-4d" transform="scale(0.015625)"/>
       <path d="M 581 4863 
L 1159 4863 
L 1159 1991 
L 2875 3500 
L 3609 3500 
L 1753 1863 
L 3688 0 
L 2938 0 
L 1159 1709 
L 1159 0 
L 581 0 
L 581 4863 
z
" id="DejaVuSans-6b" transform="scale(0.015625)"/>
       <path d="M 3513 2113 
L 3513 0 
L 2938 0 
L 2938 2094 
Q 2938 2591 2744 2837 
Q 2550 3084 2163 3084 
Q 1697 3084 1428 2787 
Q 1159 2491 1159 1978 
L 1159 0 
L 581 0 
L 581 3500 
L 1159 3500 
L 1159 2956 
Q 1366 3272 1645 3428 
Q 1925 3584 2291 3584 
Q 2894 3584 3203 3211 
Q 3513 2838 3513 2113 
z
" id="DejaVuSans-6e" transform="scale(0.015625)"/>
      </defs>
      <use xlink:href="#DejaVuSans-42"/>
      <use x="68.603516" xlink:href="#DejaVuSans-6d"/>
      <use x="166.015625" xlink:href="#DejaVuSans-68"/>
      <use x="229.394531" xlink:href="#DejaVuSans-2f"/>
      <use x="263.085938" xlink:href="#DejaVuSans-4d"/>
      <use x="349.365234" xlink:href="#DejaVuSans-6b"/>
      <use x="407.275391" xlink:href="#DejaVuSans-73"/>
      <use x="459.375" xlink:href="#DejaVuSans-70"/>
      <use x="522.851562" xlink:href="#DejaVuSans-20"/>
      <use x="554.638672" xlink:href="#DejaVuSans-28"/>
      <use x="593.652344" xlink:href="#DejaVuSans-6e"/>
      <use x="657.03125" xlink:href="#DejaVuSans-4d"/>
      <use x="743.310547" xlink:href="#DejaVuSans-29"/>
     </g>
    </g>
   </g>
   <g id="line2d_5">
    <path clip-path="url(#p018a007668)" d="M 81.360028 17.747656 
L 100.430963 17.838542 
L 100.635306 157.587429 
L 100.821052 167.86762 
L 101.002106 168.83872 
L 101.208954 168.939755 
L 102.402473 168.947656 
L 110.179626 168.842268 
L 110.286599 168.232143 
L 110.663366 166.261125 
L 111.18809 164.556038 
L 111.957214 162.765287 
L 113.008943 160.898464 
L 114.340534 159.012597 
L 116.052579 157.018962 
L 117.954852 155.146317 
L 120.237579 153.204665 
L 122.900761 151.224743 
L 126.134625 149.10806 
L 129.748943 147.009213 
L 133.933943 144.835988 
L 138.689625 142.616367 
L 144.206216 140.293739 
L 148.011092 138.817377 
L 148.014022 138.866176 
L 148.232722 145.816116 
L 148.853559 168.774733 
L 149.06827 168.899021 
L 149.915184 168.941509 
L 155.891992 168.901177 
L 156.43527 168.720418 
L 156.731223 168.361258 
L 157.05408 167.517935 
L 158.311362 163.691508 
L 159.271624 161.760496 
L 160.411123 159.969579 
L 161.932942 158.03146 
L 162.335423 157.770465 
L 162.505087 157.907255 
L 162.669698 158.41019 
L 162.862502 159.896327 
L 163.086184 163.716874 
L 163.402641 168.410957 
L 163.601 168.785701 
L 163.932551 168.89556 
L 165.065962 168.943587 
L 170.954833 168.882958 
L 171.412807 168.69198 
L 171.694729 168.316387 
L 172.027909 167.405553 
L 173.162171 163.903951 
L 174.04904 162.052085 
L 175.174103 160.224313 
L 176.505694 158.458534 
L 177.204528 157.776735 
L 177.398209 157.83963 
L 177.561419 158.206591 
L 177.747994 159.336707 
L 177.960129 162.306956 
L 178.377613 168.530152 
L 178.599121 168.821285 
L 179.039326 168.914142 
L 180.791229 168.946708 
L 186.02723 168.853617 
L 186.427445 168.622658 
L 186.709779 168.156204 
L 187.098186 166.95803 
L 188.009618 164.133799 
L 188.817776 162.373102 
L 189.910778 160.526837 
L 191.242369 158.708549 
L 192.140966 157.778548 
L 192.336444 157.837771 
L 192.50038 158.201894 
L 192.687362 159.327738 
L 192.899872 162.294128 
L 193.317548 168.528751 
L 193.538745 168.820884 
L 193.97858 168.914043 
L 195.729852 168.946705 
L 200.970914 168.85272 
L 201.344755 168.646098 
L 201.626698 168.209679 
L 201.986693 167.139469 
L 202.955435 164.120169 
L 203.76823 162.353911 
L 204.863999 160.507494 
L 206.19559 158.692621 
L 207.084771 157.776963 
L 207.278728 157.839329 
L 207.442044 158.205895 
L 207.628677 159.33541 
L 207.840864 162.305113 
L 208.258375 168.52995 
L 208.479838 168.821227 
L 208.91999 168.914128 
L 210.671802 168.946707 
L 215.914217 168.851919 
L 216.287433 168.643884 
L 216.569035 168.205377 
L 216.928686 167.133936 
L 217.900697 164.107967 
L 218.717646 162.336748 
L 219.815867 160.490233 
L 221.147458 158.678399 
L 222.016251 157.779819 
L 222.213123 157.832834 
L 222.378802 158.192867 
L 222.564517 159.294717 
L 222.774639 162.177158 
L 223.209169 168.558891 
L 223.417336 168.819723 
L 223.856111 168.913759 
L 225.560975 168.946612 
L 230.846001 168.85429 
L 231.246781 168.624662 
L 231.529412 168.159995 
L 231.918071 166.962855 
L 232.826812 164.144042 
L 233.541847 162.56142 
L 233.541847 162.56142 
" style="fill:none;stroke:#0000ff;stroke-linecap:square;stroke-width:4;"/>
   </g>
   <g id="patch_3">
    <path d="M 73.750938 176.507656 
L 73.750938 10.187656 
" style="fill:none;stroke:#000000;stroke-linecap:square;stroke-linejoin:miter;stroke-width:0.8;"/>
   </g>
   <g id="patch_4">
    <path d="M 241.150938 176.507656 
L 241.150938 10.187656 
" style="fill:none;stroke:#000000;stroke-linecap:square;stroke-linejoin:miter;stroke-width:0.8;"/>
   </g>
   <g id="patch_5">
    <path d="M 73.750938 176.507656 
L 241.150938 176.507656 
" style="fill:none;stroke:#000000;stroke-linecap:square;stroke-linejoin:miter;stroke-width:0.8;"/>
   </g>
   <g id="patch_6">
    <path d="M 73.750938 10.187656 
L 241.150938 10.187656 
" style="fill:none;stroke:#000000;stroke-linecap:square;stroke-linejoin:miter;stroke-width:0.8;"/>
   </g>
  </g>
  <g id="axes_2">
   <g id="matplotlib.axis_3">
    <g id="ytick_3">
     <g id="line2d_6">
      <defs>
       <path d="M 0 0 
L -3.5 0 
" id="m211ceb4ea2" style="stroke:#000000;stroke-width:0.8;"/>
      </defs>
      <g>
       <use style="stroke:#000000;stroke-width:0.8;" x="241.150938" xlink:href="#m211ceb4ea2" y="168.947656"/>
      </g>
     </g>
     <g id="text_7">
      <!-- 0 -->
      <g transform="translate(244.650938 176.546094)scale(0.2 -0.2)">
       <use xlink:href="#DejaVuSans-30"/>
      </g>
     </g>
    </g>
    <g id="ytick_4">
     <g id="line2d_7">
      <g>
       <use style="stroke:#000000;stroke-width:0.8;" x="241.150938" xlink:href="#m211ceb4ea2" y="17.747656"/>
      </g>
     </g>
     <g id="text_8">
      <!-- 1 -->
      <g transform="translate(244.650938 25.346094)scale(0.2 -0.2)">
       <defs>
        <path d="M 794 531 
L 1825 531 
L 1825 4091 
L 703 3866 
L 703 4441 
L 1819 4666 
L 2450 4666 
L 2450 531 
L 3481 531 
L 3481 0 
L 794 0 
L 794 531 
z
" id="DejaVuSans-31" transform="scale(0.015625)"/>
       </defs>
       <use xlink:href="#DejaVuSans-31"/>
      </g>
     </g>
    </g>
    <g id="text_9">
     <!-- Input -->
     <g transform="translate(268.974375 106.294531)rotate(-90)scale(0.1 -0.1)">
      <defs>
       <path d="M 628 4666 
L 1259 4666 
L 1259 0 
L 628 0 
L 628 4666 
z
" id="DejaVuSans-49" transform="scale(0.015625)"/>
      </defs>
      <use xlink:href="#DejaVuSans-49"/>
      <use x="29.492188" xlink:href="#DejaVuSans-6e"/>
      <use x="92.871094" xlink:href="#DejaVuSans-70"/>
      <use x="156.347656" xlink:href="#DejaVuSans-75"/>
      <use x="219.726562" xlink:href="#DejaVuSans-74"/>
     </g>
     <!-- Mitochondrial Damage Signal (AU) -->
     <g transform="translate(280.172188 179.495313)rotate(-90)scale(0.1 -0.1)">
      <defs>
       <path d="M 1959 3097 
Q 1497 3097 1228 2736 
Q 959 2375 959 1747 
Q 959 1119 1226 758 
Q 1494 397 1959 397 
Q 2419 397 2687 759 
Q 2956 1122 2956 1747 
Q 2956 2369 2687 2733 
Q 2419 3097 1959 3097 
z
M 1959 3584 
Q 2709 3584 3137 3096 
Q 3566 2609 3566 1747 
Q 3566 888 3137 398 
Q 2709 -91 1959 -91 
Q 1206 -91 779 398 
Q 353 888 353 1747 
Q 353 2609 779 3096 
Q 1206 3584 1959 3584 
z
" id="DejaVuSans-6f" transform="scale(0.015625)"/>
       <path d="M 2906 2969 
L 2906 4863 
L 3481 4863 
L 3481 0 
L 2906 0 
L 2906 525 
Q 2725 213 2448 61 
Q 2172 -91 1784 -91 
Q 1150 -91 751 415 
Q 353 922 353 1747 
Q 353 2572 751 3078 
Q 1150 3584 1784 3584 
Q 2172 3584 2448 3432 
Q 2725 3281 2906 2969 
z
M 947 1747 
Q 947 1113 1208 752 
Q 1469 391 1925 391 
Q 2381 391 2643 752 
Q 2906 1113 2906 1747 
Q 2906 2381 2643 2742 
Q 2381 3103 1925 3103 
Q 1469 3103 1208 2742 
Q 947 2381 947 1747 
z
" id="DejaVuSans-64" transform="scale(0.015625)"/>
       <path d="M 2631 2963 
Q 2534 3019 2420 3045 
Q 2306 3072 2169 3072 
Q 1681 3072 1420 2755 
Q 1159 2438 1159 1844 
L 1159 0 
L 581 0 
L 581 3500 
L 1159 3500 
L 1159 2956 
Q 1341 3275 1631 3429 
Q 1922 3584 2338 3584 
Q 2397 3584 2469 3576 
Q 2541 3569 2628 3553 
L 2631 2963 
z
" id="DejaVuSans-72" transform="scale(0.015625)"/>
       <path d="M 2194 1759 
Q 1497 1759 1228 1600 
Q 959 1441 959 1056 
Q 959 750 1161 570 
Q 1363 391 1709 391 
Q 2188 391 2477 730 
Q 2766 1069 2766 1631 
L 2766 1759 
L 2194 1759 
z
M 3341 1997 
L 3341 0 
L 2766 0 
L 2766 531 
Q 2569 213 2275 61 
Q 1981 -91 1556 -91 
Q 1019 -91 701 211 
Q 384 513 384 1019 
Q 384 1609 779 1909 
Q 1175 2209 1959 2209 
L 2766 2209 
L 2766 2266 
Q 2766 2663 2505 2880 
Q 2244 3097 1772 3097 
Q 1472 3097 1187 3025 
Q 903 2953 641 2809 
L 641 3341 
Q 956 3463 1253 3523 
Q 1550 3584 1831 3584 
Q 2591 3584 2966 3190 
Q 3341 2797 3341 1997 
z
" id="DejaVuSans-61" transform="scale(0.015625)"/>
       <path d="M 603 4863 
L 1178 4863 
L 1178 0 
L 603 0 
L 603 4863 
z
" id="DejaVuSans-6c" transform="scale(0.015625)"/>
       <path d="M 1259 4147 
L 1259 519 
L 2022 519 
Q 2988 519 3436 956 
Q 3884 1394 3884 2338 
Q 3884 3275 3436 3711 
Q 2988 4147 2022 4147 
L 1259 4147 
z
M 628 4666 
L 1925 4666 
Q 3281 4666 3915 4102 
Q 4550 3538 4550 2338 
Q 4550 1131 3912 565 
Q 3275 0 1925 0 
L 628 0 
L 628 4666 
z
" id="DejaVuSans-44" transform="scale(0.015625)"/>
       <path d="M 2906 1791 
Q 2906 2416 2648 2759 
Q 2391 3103 1925 3103 
Q 1463 3103 1205 2759 
Q 947 2416 947 1791 
Q 947 1169 1205 825 
Q 1463 481 1925 481 
Q 2391 481 2648 825 
Q 2906 1169 2906 1791 
z
M 3481 434 
Q 3481 -459 3084 -895 
Q 2688 -1331 1869 -1331 
Q 1566 -1331 1297 -1286 
Q 1028 -1241 775 -1147 
L 775 -588 
Q 1028 -725 1275 -790 
Q 1522 -856 1778 -856 
Q 2344 -856 2625 -561 
Q 2906 -266 2906 331 
L 2906 616 
Q 2728 306 2450 153 
Q 2172 0 1784 0 
Q 1141 0 747 490 
Q 353 981 353 1791 
Q 353 2603 747 3093 
Q 1141 3584 1784 3584 
Q 2172 3584 2450 3431 
Q 2728 3278 2906 2969 
L 2906 3500 
L 3481 3500 
L 3481 434 
z
" id="DejaVuSans-67" transform="scale(0.015625)"/>
       <path d="M 3425 4513 
L 3425 3897 
Q 3066 4069 2747 4153 
Q 2428 4238 2131 4238 
Q 1616 4238 1336 4038 
Q 1056 3838 1056 3469 
Q 1056 3159 1242 3001 
Q 1428 2844 1947 2747 
L 2328 2669 
Q 3034 2534 3370 2195 
Q 3706 1856 3706 1288 
Q 3706 609 3251 259 
Q 2797 -91 1919 -91 
Q 1588 -91 1214 -16 
Q 841 59 441 206 
L 441 856 
Q 825 641 1194 531 
Q 1563 422 1919 422 
Q 2459 422 2753 634 
Q 3047 847 3047 1241 
Q 3047 1584 2836 1778 
Q 2625 1972 2144 2069 
L 1759 2144 
Q 1053 2284 737 2584 
Q 422 2884 422 3419 
Q 422 4038 858 4394 
Q 1294 4750 2059 4750 
Q 2388 4750 2728 4690 
Q 3069 4631 3425 4513 
z
" id="DejaVuSans-53" transform="scale(0.015625)"/>
       <path d="M 2188 4044 
L 1331 1722 
L 3047 1722 
L 2188 4044 
z
M 1831 4666 
L 2547 4666 
L 4325 0 
L 3669 0 
L 3244 1197 
L 1141 1197 
L 716 0 
L 50 0 
L 1831 4666 
z
" id="DejaVuSans-41" transform="scale(0.015625)"/>
       <path d="M 556 4666 
L 1191 4666 
L 1191 1831 
Q 1191 1081 1462 751 
Q 1734 422 2344 422 
Q 2950 422 3222 751 
Q 3494 1081 3494 1831 
L 3494 4666 
L 4128 4666 
L 4128 1753 
Q 4128 841 3676 375 
Q 3225 -91 2344 -91 
Q 1459 -91 1007 375 
Q 556 841 556 1753 
L 556 4666 
z
" id="DejaVuSans-55" transform="scale(0.015625)"/>
      </defs>
      <use xlink:href="#DejaVuSans-4d"/>
      <use x="86.279297" xlink:href="#DejaVuSans-69"/>
      <use x="114.0625" xlink:href="#DejaVuSans-74"/>
      <use x="153.271484" xlink:href="#DejaVuSans-6f"/>
      <use x="214.453125" xlink:href="#DejaVuSans-63"/>
      <use x="269.433594" xlink:href="#DejaVuSans-68"/>
      <use x="332.8125" xlink:href="#DejaVuSans-6f"/>
      <use x="393.994141" xlink:href="#DejaVuSans-6e"/>
      <use x="457.373047" xlink:href="#DejaVuSans-64"/>
      <use x="520.849609" xlink:href="#DejaVuSans-72"/>
      <use x="561.962891" xlink:href="#DejaVuSans-69"/>
      <use x="589.746094" xlink:href="#DejaVuSans-61"/>
      <use x="651.025391" xlink:href="#DejaVuSans-6c"/>
      <use x="678.808594" xlink:href="#DejaVuSans-20"/>
      <use x="710.595703" xlink:href="#DejaVuSans-44"/>
      <use x="787.597656" xlink:href="#DejaVuSans-61"/>
      <use x="848.876953" xlink:href="#DejaVuSans-6d"/>
      <use x="946.289062" xlink:href="#DejaVuSans-61"/>
      <use x="1007.568359" xlink:href="#DejaVuSans-67"/>
      <use x="1071.044922" xlink:href="#DejaVuSans-65"/>
      <use x="1132.568359" xlink:href="#DejaVuSans-20"/>
      <use x="1164.355469" xlink:href="#DejaVuSans-53"/>
      <use x="1227.832031" xlink:href="#DejaVuSans-69"/>
      <use x="1255.615234" xlink:href="#DejaVuSans-67"/>
      <use x="1319.091797" xlink:href="#DejaVuSans-6e"/>
      <use x="1382.470703" xlink:href="#DejaVuSans-61"/>
      <use x="1443.75" xlink:href="#DejaVuSans-6c"/>
      <use x="1471.533203" xlink:href="#DejaVuSans-20"/>
      <use x="1503.320312" xlink:href="#DejaVuSans-28"/>
      <use x="1542.333984" xlink:href="#DejaVuSans-41"/>
      <use x="1610.742188" xlink:href="#DejaVuSans-55"/>
      <use x="1683.935547" xlink:href="#DejaVuSans-29"/>
     </g>
    </g>
   </g>
   <g id="line2d_8">
    <path clip-path="url(#p018a007668)" d="M 81.360028 168.947656 
L 100.430817 168.947656 
L 100.533959 17.747656 
L 110.011564 17.747656 
L 110.133892 168.947656 
L 148.010761 168.947656 
L 148.121731 108.30986 
L 150.181026 47.472569 
L 150.973938 30.450921 
L 151.525126 22.60613 
L 151.964873 18.996216 
L 152.303827 17.844786 
L 152.419441 17.751246 
L 152.584917 17.804778 
L 152.76656 18.191939 
L 153.686057 28.642789 
L 154.520941 46.372296 
L 155.361491 70.102556 
L 157.97829 146.414199 
L 158.654456 158.461549 
L 159.271624 165.70153 
L 159.650214 168.188684 
L 159.840442 168.803251 
L 160.030669 168.93516 
L 160.220896 168.583568 
L 160.601351 166.44195 
L 160.981805 162.433107 
L 161.552487 153.155235 
L 161.932942 145.02398 
L 162.084862 137.774958 
L 164.346637 68.942171 
L 165.422178 40.30481 
L 166.130012 26.957229 
L 166.675314 20.583373 
L 167.024175 18.434199 
L 167.306075 17.778051 
L 167.441289 17.757648 
L 167.631517 17.94968 
L 168.163835 22.174949 
L 168.58622 28.063219 
L 169.166992 39.36686 
L 169.918079 58.786441 
L 171.122219 96.13677 
L 172.551279 138.154347 
L 173.257944 152.952431 
L 173.887954 162.385589 
L 174.413194 167.189292 
L 174.793648 168.827284 
L 174.983875 168.926673 
L 175.174103 168.542614 
L 175.554557 166.337056 
L 175.935012 162.266952 
L 176.505694 152.905608 
L 176.886148 144.726391 
L 177.034189 137.58881 
L 178.258629 100.406971 
L 180.124225 45.921884 
L 180.882291 29.97573 
L 181.439725 22.243737 
L 181.889891 18.766894 
L 182.144012 17.911211 
L 182.387801 17.759993 
L 182.578028 17.964089 
L 183.174068 22.95204 
L 183.768277 32.263501 
L 184.709749 54.510187 
L 185.74828 85.901442 
L 186.812446 119.616895 
L 187.732115 143.705076 
L 188.409953 156.530616 
L 188.977959 164.053863 
L 189.340096 167.103288 
L 189.72055 168.801831 
L 189.910778 168.935574 
L 190.101005 168.585812 
L 190.481459 166.447802 
L 190.861914 162.442417 
L 191.432596 153.169259 
L 191.81305 145.040716 
L 191.965348 137.782883 
L 194.293965 66.974524 
L 195.302883 40.307613 
L 196.010693 26.959467 
L 196.555954 20.584961 
L 196.90476 18.435179 
L 197.18655 17.778322 
L 197.321619 17.757465 
L 197.511846 17.948519 
L 198.04418 22.169564 
L 198.466662 28.056811 
L 199.047518 39.359953 
L 199.754105 57.383347 
L 202.474579 139.176017 
L 203.243357 154.769976 
L 203.76823 162.378976 
L 204.293317 167.184844 
L 204.673772 168.826013 
L 204.863999 168.927199 
L 205.054226 168.544933 
L 205.434681 166.342906 
L 205.815135 162.276184 
L 206.385817 152.919443 
L 206.766272 144.74287 
L 206.914361 137.601682 
L 208.183777 99.037586 
L 210.044132 44.966874 
L 210.809294 29.197608 
L 211.377853 21.661031 
L 211.770292 18.769005 
L 212.02428 17.91226 
L 212.267676 17.759612 
L 212.457903 17.961799 
L 212.992318 22.255336 
L 213.413291 28.159523 
L 213.992802 39.470771 
L 214.743048 58.892651 
L 215.946118 96.222789 
L 217.374784 138.209163 
L 218.084667 153.049953 
L 218.717646 162.485961 
L 219.245185 167.256412 
L 219.625639 168.845785 
L 219.815867 168.917852 
L 220.006094 168.506527 
L 220.386549 166.247302 
L 220.767003 162.125824 
L 221.337685 152.694564 
L 221.718139 144.475237 
L 221.858361 137.341228 
L 222.641931 114.157765 
L 225.098099 42.266737 
L 225.789818 28.54123 
L 226.309664 21.745936 
L 226.699681 18.824013 
L 226.950335 17.940265 
L 227.184435 17.751931 
L 227.374663 17.908962 
L 227.830216 21.096751 
L 228.335046 27.8524 
L 228.863001 37.921535 
L 229.577225 55.777169 
L 230.638431 88.2136 
L 232.350414 139.056763 
L 233.111715 154.558216 
L 233.541847 162.167724 
L 233.541847 162.167724 
" style="fill:none;stroke:#808080;stroke-linecap:square;stroke-width:1.5;"/>
   </g>
   <g id="patch_7">
    <path d="M 73.750938 176.507656 
L 73.750938 10.187656 
" style="fill:none;stroke:#000000;stroke-linecap:square;stroke-linejoin:miter;stroke-width:0.8;"/>
   </g>
   <g id="patch_8">
    <path d="M 241.150938 176.507656 
L 241.150938 10.187656 
" style="fill:none;stroke:#000000;stroke-linecap:square;stroke-linejoin:miter;stroke-width:0.8;"/>
   </g>
   <g id="patch_9">
    <path d="M 73.750938 176.507656 
L 241.150938 176.507656 
" style="fill:none;stroke:#000000;stroke-linecap:square;stroke-linejoin:miter;stroke-width:0.8;"/>
   </g>
   <g id="patch_10">
    <path d="M 73.750938 10.187656 
L 241.150938 10.187656 
" style="fill:none;stroke:#000000;stroke-linecap:square;stroke-linejoin:miter;stroke-width:0.8;"/>
   </g>
  </g>
 </g>
 <defs>
  <clipPath id="p018a007668">
   <rect height="166.32" width="167.4" x="73.750938" y="10.187656"/>
  </clipPath>
 </defs>
</svg>
