<?xml version="1.0" encoding="utf-8" standalone="no"?>
<!DOCTYPE svg PUBLIC "-//W3C//DTD SVG 1.1//EN"
  "http://www.w3.org/Graphics/SVG/1.1/DTD/svg11.dtd">
<svg height="284.012pt" version="1.1" viewBox="0 0 375.02 284.012" width="375.02pt" xmlns="http://www.w3.org/2000/svg" xmlns:xlink="http://www.w3.org/1999/xlink">
 <metadata>
  <rdf:RDF xmlns:cc="http://creativecommons.org/ns#" xmlns:dc="http://purl.org/dc/elements/1.1/" xmlns:rdf="http://www.w3.org/1999/02/22-rdf-syntax-ns#">
   <cc:Work>
    <dc:type rdf:resource="http://purl.org/dc/dcmitype/StillImage"/>
    <dc:date>2021-09-22T19:58:28.684159</dc:date>
    <dc:format>image/svg+xml</dc:format>
    <dc:creator>
     <cc:Agent>
      <dc:title>Matplotlib v3.4.2, https://matplotlib.org/</dc:title>
     </cc:Agent>
    </dc:creator>
   </cc:Work>
  </rdf:RDF>
 </metadata>
 <defs>
  <style type="text/css">*{stroke-linecap:butt;stroke-linejoin:round;}</style>
 </defs>
 <g id="figure_1">
  <g id="patch_1">
   <path d="M 0 284.012 
L 375.02 284.012 
L 375.02 0 
L 0 0 
z
" style="fill:none;"/>
  </g>
  <g id="axes_1">
   <g id="line2d_1">
    <path clip-path="url(#p66f21289ab)" d="M 10.614971 39.242182 
L 17.162171 19.122466 
L 18.607657 15.59447 
L 19.798057 13.2376 
L 20.8184 11.701639 
L 21.668686 10.813607 
L 22.348914 10.385128 
L 23.029143 10.224806 
L 23.624343 10.315594 
L 24.219543 10.630374 
L 24.899771 11.272348 
L 25.58 12.221395 
L 26.345257 13.659569 
L 27.280571 15.946797 
L 28.300914 19.086033 
L 29.491314 23.537821 
L 30.851771 29.522913 
L 32.7224 38.863912 
L 36.548686 58.284437 
L 37.824114 63.540262 
L 38.844457 66.875051 
L 39.694743 68.926885 
L 40.374971 70.029696 
L 40.885143 70.518226 
L 41.395314 70.70266 
L 41.820457 70.617207 
L 42.2456 70.310269 
L 42.755771 69.646733 
L 43.350971 68.465529 
L 44.0312 66.586722 
L 44.881486 63.476963 
L 45.8168 59.15874 
L 47.0072 52.517565 
L 48.707771 41.548766 
L 51.513714 23.358814 
L 52.704114 17.176911 
L 53.5544 13.792648 
L 54.234629 11.838209 
L 54.829829 10.739005 
L 55.254971 10.324907 
L 55.595086 10.224019 
L 55.9352 10.331709 
L 56.360343 10.762516 
L 56.870514 11.714203 
L 57.465714 13.415272 
L 58.145943 16.108123 
L 58.996229 20.50673 
L 60.016571 27.065001 
L 61.462057 37.966836 
L 64.097943 58.047078 
L 65.118286 64.124695 
L 65.883543 67.539661 
L 66.478743 69.385101 
L 66.988914 70.346098 
L 67.414057 70.685801 
L 67.754171 70.647459 
L 68.094286 70.330276 
L 68.519429 69.541622 
L 69.0296 68.028123 
L 69.6248 65.509729 
L 70.390057 61.175122 
L 71.325371 54.461762 
L 72.685829 42.849539 
L 75.066629 22.429354 
L 76.001943 16.297244 
L 76.682171 13.033904 
L 77.277371 11.158269 
L 77.702514 10.427918 
L 78.042629 10.225326 
L 78.297714 10.300157 
L 78.637829 10.704198 
L 79.062971 11.695888 
L 79.573143 13.583367 
L 80.168343 16.695877 
L 80.9336 21.983168 
L 81.953943 30.791073 
L 85.525143 63.416118 
L 86.2904 67.70161 
L 86.8856 69.792317 
L 87.310743 70.551884 
L 87.565829 70.701609 
L 87.820914 70.618082 
L 88.076 70.300327 
L 88.416114 69.514039 
L 88.841257 67.959496 
L 89.436457 64.767949 
L 90.116686 59.816499 
L 91.052 51.212999 
L 94.538171 16.876736 
L 95.2184 12.929259 
L 95.728571 11.075103 
L 96.153714 10.321195 
L 96.4088 10.22724 
L 96.663886 10.405736 
L 97.004 11.067423 
L 97.429143 12.564832 
L 97.939314 15.302408 
L 98.619543 20.39622 
L 99.469829 28.628496 
L 101.1704 47.994604 
L 102.3608 60.283943 
L 103.126057 66.148628 
L 103.721257 69.155534 
L 104.1464 70.350147 
L 104.486514 70.699043 
L 104.7416 70.598893 
L 104.996686 70.18738 
L 105.3368 69.158963 
L 105.761943 67.12488 
L 106.357143 62.977719 
L 107.1224 55.755751 
L 108.227771 42.871643 
L 110.013371 22.017426 
L 110.778629 15.443498 
L 111.373829 12.030838 
L 111.798971 10.654623 
L 112.139086 10.234045 
L 112.309143 10.255916 
L 112.564229 10.580538 
L 112.904343 11.554246 
L 113.329486 13.616478 
L 113.839657 17.249318 
L 114.519886 23.787374 
L 115.540229 36.100885 
L 117.495886 60.093023 
L 118.261143 66.58515 
L 118.771314 69.328283 
L 119.196457 70.50611 
L 119.451543 70.703978 
L 119.6216 70.620273 
L 119.876686 70.170936 
L 120.2168 68.974526 
L 120.641943 66.553826 
L 121.237143 61.588594 
L 122.0024 53.017141 
L 123.532914 32.454232 
L 124.553257 20.157451 
L 125.233486 14.230425 
L 125.743657 11.437183 
L 126.083771 10.464349 
L 126.338857 10.224823 
L 126.508914 10.302156 
L 126.764 10.774093 
L 127.104114 12.059152 
L 127.529257 14.677475 
L 128.124457 20.050671 
L 128.889714 29.270334 
L 131.610629 64.563905 
L 132.205829 68.757197 
L 132.630971 70.343595 
L 132.886057 70.689908 
L 133.056114 70.662716 
L 133.3112 70.233597 
L 133.651314 68.945201 
L 134.076457 66.230114 
L 134.671657 60.574104 
L 135.436914 50.832268 
L 137.902743 17.174722 
L 138.497943 12.520138 
L 138.923086 10.699546 
L 139.178171 10.259605 
L 139.348229 10.245384 
L 139.518286 10.455608 
L 139.773371 11.189446 
L 140.113486 12.93143 
L 140.623657 17.07584 
L 141.303886 25.020065 
L 142.324229 40.131704 
L 143.684686 59.808821 
L 144.364914 66.677575 
L 144.875086 69.726556 
L 145.2152 70.615576 
L 145.385257 70.701495 
L 145.555314 70.545828 
L 145.8104 69.861004 
L 146.150514 68.123385 
L 146.575657 64.702241 
L 147.170857 57.890063 
L 148.106171 43.957734 
L 149.636686 20.853459 
L 150.316914 13.893557 
L 150.742057 11.298596 
L 151.082171 10.327295 
L 151.252229 10.225454 
L 151.422286 10.382384 
L 151.677371 11.101087 
L 152.017486 12.94096 
L 152.442629 16.570657 
L 153.037829 23.781675 
L 153.973143 38.385043 
L 155.418629 60.70572 
L 156.013829 66.925894 
L 156.438971 69.630414 
L 156.779086 70.61561 
L 156.949143 70.698513 
L 157.1192 70.505403 
L 157.374286 69.701057 
L 157.7144 67.692877 
L 158.139543 63.780982 
L 158.734743 56.095101 
L 159.755086 39.328556 
L 160.945486 20.540962 
L 161.540686 14.057658 
L 161.965829 11.269149 
L 162.305943 10.291846 
L 162.476 10.238975 
L 162.646057 10.479324 
L 162.901143 11.385509 
L 163.241257 13.581929 
L 163.751429 18.816044 
L 164.431657 28.678348 
L 166.727429 65.097024 
L 167.2376 69.206545 
L 167.577714 70.508683 
L 167.747771 70.701663 
L 167.917829 70.584465 
L 168.172914 69.828775 
L 168.513029 67.765795 
L 168.938171 63.610282 
L 169.533371 55.338741 
L 170.638743 35.870435 
L 171.659086 19.383408 
L 172.254286 13.064856 
L 172.679429 10.698111 
L 172.934514 10.230837 
L 173.104571 10.327781 
L 173.359657 11.08539 
L 173.699771 13.209294 
L 174.124914 17.523743 
L 174.720114 26.124095 
L 175.910514 47.754847 
L 176.845829 62.699787 
L 177.356 68.00483 
L 177.781143 70.321103 
L 178.036229 70.70399 
L 178.206286 70.528852 
L 178.461371 69.623366 
L 178.801486 67.25301 
L 179.226629 62.574759 
L 179.821829 53.437668 
L 182.1176 14.700706 
L 182.542743 11.387636 
L 182.882857 10.277863 
L 183.052914 10.261412 
L 183.222971 10.606811 
L 183.478057 11.795085 
L 183.818171 14.579517 
L 184.328343 21.044987 
L 185.0936 34.437547 
L 186.624114 62.11993 
L 187.134286 67.849973 
L 187.4744 70.011372 
L 187.729486 70.671219 
L 187.899543 70.639228 
L 188.0696 70.228432 
L 188.324686 68.912568 
L 188.6648 65.911379 
L 189.174971 59.057722 
L 189.940229 45.099865 
L 191.300686 19.756438 
L 191.810857 13.563922 
L 192.236 10.761061 
L 192.491086 10.228401 
L 192.661143 10.367625 
L 192.916229 11.315732 
L 193.256343 13.914374 
L 193.681486 19.111392 
L 194.361714 30.876121 
L 196.147314 64.063775 
L 196.657486 69.114756 
L 196.9976 70.576191 
L 197.167657 70.694552 
L 197.337714 70.399377 
L 197.5928 69.189532 
L 197.932914 66.204931 
L 198.443086 59.138808 
L 199.208343 44.536348 
L 200.483771 19.779397 
L 200.993943 13.377908 
L 201.334057 10.969389 
L 201.589143 10.252648 
L 201.7592 10.311027 
L 201.929257 10.799433 
L 202.184343 12.323554 
L 202.524457 15.75416 
L 203.034629 23.479653 
L 203.884914 40.629492 
L 204.990286 61.972111 
L 205.500457 68.130314 
L 205.840571 70.255413 
L 206.095657 70.702457 
L 206.265714 70.441232 
L 206.5208 69.217709 
L 206.860914 66.100836 
L 207.371086 58.639971 
L 208.136343 43.26785 
L 209.326743 19.42555 
L 209.836914 12.982881 
L 210.177029 10.727585 
L 210.432114 10.22416 
L 210.602171 10.469112 
L 210.857257 11.700504 
L 211.197371 14.884698 
L 211.707543 22.543113 
L 212.4728 38.290531 
L 213.6632 62.293697 
L 214.173371 68.474013 
L 214.513486 70.432538 
L 214.683543 70.703084 
L 214.8536 70.491511 
L 215.108686 69.277409 
L 215.4488 66.05715 
L 215.958971 58.239867 
L 216.724229 42.150373 
L 217.8296 19.315445 
L 218.339771 12.751945 
L 218.679886 10.586555 
L 218.849943 10.234595 
L 218.934971 10.245627 
L 219.105029 10.642146 
L 219.360114 12.158869 
L 219.700229 15.809136 
L 220.2104 24.253568 
L 221.145714 44.886308 
L 221.996 62.091433 
L 222.506171 68.516112 
L 222.846286 70.481083 
L 223.016343 70.702705 
L 223.1864 70.407716 
L 223.441486 69.007699 
L 223.7816 65.443273 
L 224.291771 56.985889 
L 225.142057 38.032024 
L 226.077371 18.613761 
L 226.587543 12.222587 
L 226.927657 10.375123 
L 227.097714 10.240373 
L 227.267771 10.639338 
L 227.522857 12.222877 
L 227.862971 16.068662 
L 228.373143 24.967516 
L 229.393486 48.399215 
L 230.158743 63.583599 
L 230.583886 68.726159 
L 230.924 70.570976 
L 231.094057 70.678305 
L 231.264114 70.234855 
L 231.5192 68.554994 
L 231.859314 64.535504 
L 232.369486 55.325061 
L 234.410171 13.216084 
L 234.750286 10.684154 
L 234.920343 10.245344 
L 235.005371 10.238534 
L 235.175429 10.650969 
L 235.430514 12.317308 
L 235.770629 16.377213 
L 236.2808 25.745915 
L 238.321486 68.098514 
L 238.6616 70.407883 
L 238.831657 70.703988 
L 238.916686 70.63256 
L 239.086743 70.051759 
L 239.341829 68.109968 
L 239.681943 63.66271 
L 240.192114 53.75158 
L 242.062743 13.65168 
L 242.402857 10.818758 
L 242.657943 10.226609 
L 242.828 10.583999 
L 243.083086 12.233393 
L 243.4232 16.38626 
L 243.933371 26.083507 
L 245.889029 67.976689 
L 246.229143 70.400478 
L 246.3992 70.70397 
L 246.484229 70.623329 
L 246.654286 69.998611 
L 246.909371 67.930711 
L 247.249486 63.221126 
L 247.759657 52.804795 
L 249.460229 14.632206 
L 249.800343 11.215352 
L 250.055429 10.247045 
L 250.140457 10.241039 
L 250.310514 10.706504 
L 250.5656 12.575948 
L 250.905714 17.106047 
L 251.415886 27.440588 
L 253.116457 66.210941 
L 253.456571 69.701289 
L 253.711657 70.682632 
L 253.796686 70.68441 
L 253.966743 70.197678 
L 254.221829 68.265984 
L 254.561943 63.605463 
L 255.072114 53.020377 
L 256.772686 14.154872 
L 257.1128 10.938422 
L 257.367886 10.2245 
L 257.537943 10.586164 
L 257.793029 12.368051 
L 258.133143 16.906272 
L 258.643314 27.470381 
L 260.343886 66.81903 
L 260.684 70.033931 
L 260.939086 70.70036 
L 261.109143 70.28542 
L 261.364229 68.394704 
L 261.704343 63.670453 
L 262.214514 52.797726 
L 263.830057 14.615983 
L 264.170171 11.093669 
L 264.425257 10.225894 
L 264.510286 10.288352 
L 264.680343 10.941136 
L 264.935429 13.206058 
L 265.275543 18.426756 
L 265.870743 32.127821 
L 267.146171 63.686262 
L 267.571314 69.270918 
L 267.8264 70.614017 
L 267.911429 70.703999 
L 267.996457 70.613067 
L 268.166514 69.891084 
L 268.4216 67.495877 
L 268.846743 60.362832 
L 269.526971 43.37903 
L 270.547314 17.973187 
L 270.972457 11.970385 
L 271.227543 10.396499 
L 271.3976 10.261314 
L 271.567657 10.865353 
L 271.822743 13.122977 
L 272.162857 18.446578 
L 272.673029 30.261909 
L 274.033486 64.467095 
L 274.458629 69.698761 
L 274.713714 70.697252 
L 274.798743 70.653037 
L 274.9688 69.997956 
L 275.223886 67.635897 
L 275.564 62.135552 
L 276.1592 47.728113 
L 277.3496 17.281647 
L 277.774743 11.552827 
L 278.029829 10.273907 
L 278.114857 10.23173 
L 278.284914 10.728019 
L 278.54 12.89341 
L 278.880114 18.220838 
L 279.390286 30.255932 
L 280.750743 64.980432 
L 281.175886 69.967393 
L 281.345943 70.65081 
L 281.430971 70.69692 
L 281.601029 70.195607 
L 281.856114 67.991624 
L 282.196229 62.563595 
L 282.7064 50.321603 
L 284.066857 15.488299 
L 284.406971 11.336542 
L 284.662057 10.234778 
L 284.747086 10.269958 
L 284.917143 10.945587 
L 285.172229 13.43073 
L 285.512343 19.238882 
L 286.107543 34.364993 
L 287.212914 63.531633 
L 287.638057 69.438768 
L 287.893143 70.676932 
L 287.978171 70.679337 
L 288.148229 70.06545 
L 288.403314 67.63732 
L 288.743429 61.839328 
L 289.338629 46.591692 
L 290.444 17.197568 
L 290.869143 11.366482 
L 291.124229 10.233595 
L 291.209257 10.2755 
L 291.379314 10.990083 
L 291.6344 13.593134 
L 291.974514 19.64612 
L 292.569714 35.279795 
L 293.590057 62.913771 
L 294.0152 69.23637 
L 294.270286 70.650038 
L 294.355314 70.694809 
L 294.525371 70.139447 
L 294.780457 67.732614 
L 295.120571 61.848637 
L 295.715771 46.251797 
L 296.821143 16.562438 
L 297.246286 11.045979 
L 297.416343 10.284511 
L 297.501371 10.231296 
L 297.671429 10.782703 
L 297.926514 13.215128 
L 298.266629 19.183583 
L 298.861829 34.995104 
L 299.882171 63.126541 
L 300.307314 69.407555 
L 300.5624 70.68466 
L 300.647429 70.66573 
L 300.817486 69.958232 
L 301.072571 67.271834 
L 301.412686 60.959709 
L 302.007886 44.686367 
L 303.028229 16.794669 
L 303.453371 11.075389 
L 303.623429 10.286155 
L 303.708457 10.231837 
L 303.878514 10.806734 
L 304.1336 13.335238 
L 304.473714 19.523345 
L 305.068914 35.808244 
L 306.089257 64.044674 
L 306.5144 69.84821 
L 306.684457 70.643795 
L 306.769486 70.694849 
L 306.939543 70.100624 
L 307.194629 67.513311 
L 307.534743 61.203603 
L 308.129943 44.674429 
L 309.065257 18.135658 
L 309.4904 11.558358 
L 309.745486 10.240184 
L 309.830514 10.27108 
L 310.000571 11.040703 
L 310.255657 13.908514 
L 310.595771 20.58801 
L 311.190971 37.582746 
L 312.126286 63.845938 
L 312.551429 69.831102 
L 312.721486 70.645378 
L 312.806514 70.69294 
L 312.976571 70.066108 
L 313.231657 67.369981 
L 313.571771 60.828092 
L 314.166971 43.828584 
L 315.102286 17.223496 
L 315.527429 11.121415 
L 315.697486 10.286036 
L 315.782514 10.234258 
L 315.952571 10.865544 
L 316.207657 13.59914 
L 316.547771 20.237641 
L 317.142971 37.451167 
L 318.078286 64.094786 
L 318.4184 69.256264 
L 318.673486 70.682067 
L 318.758514 70.661823 
L 318.928571 69.874878 
L 319.183657 66.88951 
L 319.523771 59.916561 
L 320.118971 42.287339 
L 320.969257 17.672761 
L 321.3944 11.235074 
L 321.649486 10.227704 
L 321.734514 10.398102 
L 321.904571 11.49392 
L 322.159657 14.943337 
L 322.5848 24.782961 
L 324.200343 68.712148 
L 324.455429 70.587625 
L 324.540457 70.703667 
L 324.625486 70.561361 
L 324.795543 69.508011 
L 325.050629 66.086984 
L 325.475771 56.209267 
L 327.091314 12.086727 
L 327.3464 10.305179 
L 327.431429 10.230004 
L 327.601486 10.86611 
L 327.856571 13.730929 
L 328.196686 20.733131 
L 328.791886 38.764494 
L 329.642171 63.787765 
L 329.982286 69.221126 
L 330.237371 70.687914 
L 330.3224 70.647065 
L 330.492457 69.768195 
L 330.747543 66.529615 
L 331.172686 56.737882 
L 332.788229 12.0015 
L 333.043314 10.279298 
L 333.128343 10.241738 
L 333.2984 10.978177 
L 333.553486 14.047119 
L 333.8936 21.382231 
L 334.573829 42.805791 
L 335.339086 64.789182 
L 335.6792 69.729356 
L 335.849257 70.642729 
L 335.934286 70.688692 
L 336.104343 69.956107 
L 336.359429 66.861645 
L 336.699543 59.444778 
L 337.379771 37.812362 
L 338.06 17.633729 
L 338.400114 11.862948 
L 338.6552 10.250878 
L 338.740229 10.268191 
L 338.910286 11.138899 
L 339.165371 14.458619 
L 339.590514 24.577747 
L 341.121029 68.505195 
L 341.376114 70.573479 
L 341.461143 70.703756 
L 341.546171 70.549883 
L 341.716229 69.397343 
L 341.971314 65.654289 
L 342.396457 54.927319 
L 343.841943 12.771843 
L 344.097029 10.443314 
L 344.182057 10.231873 
L 344.267086 10.308753 
L 344.437143 11.322597 
L 344.692229 14.903865 
L 345.117371 25.502365 
L 346.562857 68.076215 
L 346.817943 70.468566 
L 346.902971 70.693421 
L 346.988 70.625689 
L 347.158057 69.617114 
L 347.413143 66.012459 
L 347.838286 55.311211 
L 349.283771 12.649981 
L 349.538857 10.393758 
L 349.623886 10.224712 
L 349.708914 10.352687 
L 349.878971 11.492575 
L 350.134057 15.310006 
L 350.5592 26.348362 
L 351.919657 67.517928 
L 352.174743 70.299307 
L 352.3448 70.684494 
L 352.514857 69.867797 
L 352.769943 66.469635 
L 353.110057 58.403799 
L 353.875314 32.49895 
L 354.470514 15.535307 
L 354.810629 10.825442 
L 354.980686 10.224025 
L 355.065714 10.380929 
L 355.235771 11.603069 
L 355.490857 15.59506 
L 355.916 26.991842 
L 357.276457 68.119902 
L 357.531543 70.512025 
L 357.616571 70.70201 
L 357.7016 70.582099 
L 357.871657 69.41984 
L 358.126743 65.479771 
L 358.551886 54.073369 
L 359.912343 12.733179 
L 360.167429 10.388847 
L 360.252457 10.224092 
L 360.337486 10.373571 
L 360.507543 11.606598 
L 360.762629 15.674579 
L 361.187771 27.307699 
L 362.4632 67.218341 
L 362.718286 70.231241 
L 362.888343 70.691918 
L 363.0584 69.882068 
L 363.313486 66.370292 
L 363.6536 57.971473 
L 364.503886 28.338393 
L 365.014057 14.513014 
L 365.354171 10.463413 
L 365.4392 10.231695 
L 365.524229 10.322689 
L 365.694286 11.466328 
L 365.949371 15.472368 
L 366.374514 27.175473 
L 367.649943 67.438757 
L 367.905029 70.331929 
L 367.905029 70.331929 
" style="fill:none;stroke:#8b0000;stroke-linecap:square;stroke-width:1.5;"/>
   </g>
  </g>
  <g id="axes_2">
   <g id="patch_2">
    <path d="M 10.7 273.312 
L 367.82 273.312 
L 367.82 73.728 
L 10.7 73.728 
z
" style="fill:none;"/>
   </g>
   <g id="matplotlib.axis_1">
    <g id="xtick_1">
     <g id="line2d_2">
      <defs>
       <path d="M 0 0 
L 0 3.5 
" id="m138c2d1f75" style="stroke:#000000;stroke-width:0.8;"/>
      </defs>
      <g>
       <use style="stroke:#000000;stroke-width:0.8;" x="10.7" xlink:href="#m138c2d1f75" y="273.312"/>
      </g>
     </g>
    </g>
    <g id="xtick_2">
     <g id="line2d_3">
      <g>
       <use style="stroke:#000000;stroke-width:0.8;" x="367.82" xlink:href="#m138c2d1f75" y="273.312"/>
      </g>
     </g>
    </g>
   </g>
   <g id="matplotlib.axis_2"/>
   <g id="line2d_4">
    <path clip-path="url(#pd512a248ee)" d="M 13.59006 285.012 
L 14.437133 233.458591 
L 15.044189 210.053378 
L 15.620304 195.654404 
L 16.389863 182.444133 
L 17.354112 170.136388 
L 18.53815 157.852461 
L 19.822373 146.599477 
L 21.297753 135.679739 
L 22.623514 127.39226 
L 23.86328 120.760616 
L 25.407645 113.80671 
L 26.730247 108.871284 
L 28.020877 104.881062 
L 29.175254 102.010312 
L 30.069721 100.322982 
L 30.746583 99.471433 
L 31.225194 99.192783 
L 31.544268 99.211492 
L 31.829848 99.409146 
L 32.115427 99.826846 
L 32.509088 100.868309 
L 32.96911 103.023983 
L 33.439068 106.675768 
L 33.917765 112.350517 
L 34.474347 121.686703 
L 35.527947 144.391175 
L 36.566399 165.226931 
L 37.47009 179.547416 
L 38.364025 190.880474 
L 39.619682 203.664265 
L 40.869646 214.143146 
L 42.456181 225.496076 
L 44.466515 237.860529 
L 46.74708 249.936106 
L 47.909118 255.031453 
L 48.300698 255.998679 
L 48.467198 256.010859 
L 48.609912 255.679814 
L 48.800335 254.537107 
L 49.03738 251.57723 
L 49.342905 244.507345 
L 49.754442 229.035372 
L 51.119225 171.697284 
L 51.66257 158.216261 
L 52.258764 148.244929 
L 52.895703 140.827515 
L 53.72957 133.701648 
L 54.705494 127.185953 
L 55.834445 120.954974 
L 57.30737 114.21855 
L 58.626516 109.31945 
L 59.581038 106.507237 
L 60.312181 104.979756 
L 60.72179 104.533353 
L 60.964494 104.489576 
L 61.193534 104.662561 
L 61.494338 105.328909 
L 61.82017 106.861902 
L 62.147729 109.629018 
L 62.526311 114.870679 
L 63.00757 124.945992 
L 65.085639 173.157957 
L 65.853879 185.163186 
L 66.924538 198.191071 
L 67.986799 208.461137 
L 69.333132 219.256932 
L 71.131823 231.392809 
L 72.287362 237.897594 
L 72.661917 239.026073 
L 72.782274 239.020128 
L 72.902631 238.719429 
L 73.089267 237.480974 
L 73.319181 234.262259 
L 73.626817 226.349577 
L 74.054543 208.992857 
L 75.092842 164.229989 
L 75.703337 148.310225 
L 76.281256 138.956907 
L 76.931917 132.06761 
L 77.721394 126.196169 
L 78.3964 122.215322 
L 79.830115 115.348545 
L 80.942847 111.136024 
L 81.625653 109.169223 
L 82.125997 108.280798 
L 82.343876 108.15159 
L 82.546158 108.249251 
L 82.801448 108.799859 
L 83.066139 110.113049 
L 83.37673 113.084155 
L 83.753778 119.469616 
L 84.307209 133.779056 
L 85.425218 163.209515 
L 86.322804 180.520336 
L 87.226725 193.532387 
L 88.126428 203.671938 
L 89.268124 214.087317 
L 90.833844 225.770767 
L 91.674044 230.711085 
L 91.942201 231.344683 
L 92.048644 231.243288 
L 92.193157 230.637737 
L 92.386218 228.746134 
L 92.643473 223.789098 
L 93.002842 211.751203 
L 94.623263 147.909679 
L 95.180622 137.562118 
L 95.701162 131.302124 
L 96.359566 125.835615 
L 97.165342 120.92193 
L 98.222969 115.871995 
L 99.189651 112.27256 
L 99.796029 110.802726 
L 100.103713 110.554906 
L 100.273758 110.675856 
L 100.483249 111.209687 
L 100.753112 112.830313 
L 101.04334 116.314579 
L 101.400508 123.731027 
L 102.214377 147.391892 
L 103.060261 168.674335 
L 103.881444 184.09319 
L 104.83535 197.464786 
L 105.782883 207.725124 
L 107.094996 219.052909 
L 108.064457 225.671481 
L 108.358391 226.536782 
L 108.464745 226.444436 
L 108.608611 225.815395 
L 108.801508 223.81379 
L 109.063882 218.440766 
L 109.439898 205.146178 
L 110.818212 149.008638 
L 111.358213 137.633693 
L 111.891115 130.565805 
L 112.439513 125.644161 
L 113.309002 120.157952 
L 114.199026 115.956464 
L 114.958818 113.261295 
L 115.384325 112.385647 
L 115.561018 112.287645 
L 115.713437 112.405246 
L 115.894571 112.892369 
L 116.132244 114.378206 
L 116.424629 118.168325 
L 116.798695 126.86257 
L 118.49704 173.202455 
L 119.192903 186.017599 
L 120.163723 199.573224 
L 121.127283 209.879925 
L 122.39582 220.566814 
L 122.835581 222.906715 
L 122.970254 223.053073 
L 123.003922 223.021147 
L 123.122558 222.644667 
L 123.299118 221.170376 
L 123.538704 216.997518 
L 123.885267 206.043894 
L 125.575816 141.500487 
L 126.069509 133.045381 
L 126.580767 127.304811 
L 127.393093 121.331405 
L 128.240435 117.002728 
L 128.964336 114.365715 
L 129.347823 113.655301 
L 129.494631 113.637452 
L 129.677631 113.943319 
L 129.868104 114.835751 
L 130.123725 117.442171 
L 130.428921 123.436553 
L 130.976992 139.947305 
L 131.856012 165.047198 
L 132.558431 180.208764 
L 133.377835 193.633095 
L 134.195422 203.946139 
L 135.364087 215.410266 
L 135.996215 219.890706 
L 136.198022 220.323743 
L 136.213545 220.316572 
L 136.307388 220.121516 
L 136.469272 219.070977 
L 136.688226 215.877268 
L 136.964955 208.466626 
L 137.418824 189.527256 
L 138.303195 152.418851 
L 138.80929 139.377098 
L 139.366792 130.508742 
L 140.016751 124.183815 
L 140.77688 119.358881 
L 141.508464 116.098865 
L 141.920775 114.938512 
L 142.157733 114.705425 
L 142.282634 114.802957 
L 142.475388 115.420162 
L 142.698829 117.214948 
L 142.971488 121.723901 
L 143.3672 132.809171 
L 144.493492 166.192597 
L 145.207461 181.631149 
L 146.04037 195.201456 
L 146.871023 205.56235 
L 147.960454 216.022709 
L 148.32398 217.969985 
L 148.416741 218.051169 
L 148.463121 217.999754 
L 148.576681 217.572452 
L 148.759782 215.813815 
L 149.02176 210.532562 
L 149.363572 198.62258 
L 150.74866 143.719547 
L 151.240568 133.823905 
L 151.813633 126.660611 
L 152.43133 121.729335 
L 153.17173 117.728418 
L 153.688879 115.952648 
L 153.919015 115.632297 
L 154.042567 115.677913 
L 154.187727 116.02578 
L 154.378211 117.192332 
L 154.61679 120.348912 
L 154.944463 128.417852 
L 156.595993 175.615724 
L 157.29665 188.872631 
L 157.999229 199.234848 
L 159.067491 211.325508 
L 159.640875 215.764723 
L 159.804634 216.102507 
L 159.834409 216.082864 
L 159.943854 215.753111 
L 160.120812 214.21669 
L 160.342375 210.203264 
L 160.66371 200.000352 
L 162.313556 138.316665 
L 162.778004 130.544314 
L 163.444735 123.656937 
L 164.077856 119.520637 
L 164.616137 117.167774 
L 164.939453 116.460421 
L 165.055811 116.444856 
L 165.199484 116.709008 
L 165.383778 117.727622 
L 165.615101 120.65226 
L 165.931919 128.374677 
L 167.5226 174.738329 
L 168.404066 191.401279 
L 169.138934 201.822758 
L 170.129337 212.501487 
L 170.461573 214.326562 
L 170.534112 214.377588 
L 170.578047 214.326431 
L 170.691568 213.868695 
L 170.85872 212.203256 
L 171.096023 207.470287 
L 171.443599 195.519092 
L 172.753582 143.544107 
L 173.28209 132.717561 
L 173.778793 126.382111 
L 174.431493 121.108098 
L 174.977648 118.263959 
L 175.377287 117.190872 
L 175.538561 117.217614 
L 175.703377 117.746773 
L 175.888366 119.283514 
L 176.145605 123.835823 
L 176.551211 136.117998 
L 177.601058 167.945873 
L 178.320387 183.778042 
L 179.159878 197.573884 
L 180.149677 209.575451 
L 180.575894 212.678476 
L 180.684166 212.840217 
L 180.726525 212.799884 
L 180.839008 212.366261 
L 181.007757 210.688418 
L 181.25099 205.754687 
L 181.609118 193.203466 
L 182.85366 143.783739 
L 183.381384 132.722475 
L 183.971027 125.342025 
L 184.567662 120.755484 
L 185.058599 118.400348 
L 185.327748 117.832706 
L 185.471246 117.918507 
L 185.61925 118.475412 
L 185.821156 120.414498 
L 186.076814 125.580761 
L 186.619987 143.13062 
L 187.446109 167.770321 
L 188.152855 183.580858 
L 188.978038 197.395695 
L 189.928809 209.069883 
L 190.273229 211.325215 
L 190.3639 211.415546 
L 190.406656 211.35903 
L 190.523259 210.837841 
L 190.702974 208.82597 
L 190.96765 202.828883 
L 191.355416 188.168048 
L 192.382724 146.58705 
L 192.860883 135.213912 
L 193.428631 126.935883 
L 194.023763 121.722335 
L 194.513824 119.104263 
L 194.774973 118.46093 
L 194.913887 118.502288 
L 195.058352 119.008542 
L 195.25461 120.858322 
L 195.492861 125.602856 
L 195.959396 140.575385 
L 196.885502 168.60113 
L 197.601373 184.542191 
L 198.437433 198.415823 
L 199.317236 208.914412 
L 199.583782 210.125782 
L 199.654838 210.071875 
L 199.773926 209.526104 
L 199.96017 207.345648 
L 200.238295 200.710689 
L 200.702844 182.213655 
L 201.520432 148.918284 
L 202.101444 134.615742 
L 202.631655 126.907784 
L 203.198705 121.875084 
L 203.646962 119.510718 
L 203.876571 119.029619 
L 204.000259 119.135743 
L 204.161599 119.895728 
L 204.363964 122.353675 
L 204.643212 129.192394 
L 206.28748 177.820476 
L 206.985046 191.346732 
L 207.92328 204.840346 
L 208.356528 208.653436 
L 208.488134 208.905864 
L 208.516938 208.87789 
L 208.61528 208.526064 
L 208.790803 206.786394 
L 209.053811 201.165232 
L 209.441205 186.910122 
L 210.477288 145.530598 
L 210.956313 134.342114 
L 211.459168 126.980248 
L 212.008832 122.035417 
L 212.420277 119.91351 
L 212.621868 119.573614 
L 212.732898 119.73128 
L 212.883536 120.553058 
L 213.078522 123.127028 
L 213.364286 130.506867 
L 214.893757 176.399458 
L 215.76385 193.296901 
L 216.653295 205.595856 
L 216.966451 207.700361 
L 217.032258 207.76692 
L 217.076087 207.718734 
L 217.179063 207.283985 
L 217.339482 205.59842 
L 217.570741 200.769156 
L 217.952512 187.142652 
L 219.083422 143.076489 
L 219.564937 132.669353 
L 220.14977 125.058484 
L 220.637878 121.33094 
L 220.942818 120.173816 
L 221.066729 120.129562 
L 221.196853 120.51989 
L 221.376345 122.156767 
L 221.620169 127.16326 
L 222.183696 145.839036 
L 223.072168 172.020226 
L 223.837467 188.414227 
L 224.734673 202.411178 
L 225.1599 206.430416 
L 225.286845 206.699738 
L 225.316087 206.674521 
L 225.417857 206.299166 
L 225.577265 204.711246 
L 225.808682 199.99596 
L 226.191137 186.493718 
L 227.330292 142.491679 
L 227.799053 132.456333 
L 228.363214 125.103766 
L 228.825546 121.591332 
L 229.097267 120.646114 
L 229.208791 120.663066 
L 229.329253 121.102807 
L 229.502604 122.845162 
L 229.741392 128.021428 
L 230.386621 149.604314 
L 231.158963 172.044692 
L 231.917999 188.422998 
L 232.800328 202.259526 
L 233.168469 205.497606 
L 233.271654 205.686991 
L 233.316851 205.636041 
L 233.425095 205.142336 
L 233.598655 203.129547 
L 233.853032 197.235261 
L 234.264446 181.589686 
L 235.176334 145.695122 
L 235.734749 132.830407 
L 236.28971 125.388049 
L 236.778123 121.734669 
L 237.007909 121.11537 
L 237.109104 121.234842 
L 237.244999 121.981722 
L 237.428437 124.486188 
L 237.723735 132.460318 
L 239.126595 175.324715 
L 239.950383 192.083109 
L 240.739386 203.387595 
L 240.989819 204.733799 
L 241.048302 204.716652 
L 241.064308 204.686276 
L 241.176297 204.140795 
L 241.358629 201.88271 
L 241.62668 195.281294 
L 242.117094 175.755064 
L 242.909719 145.325983 
L 243.453016 132.829516 
L 243.987972 125.579303 
L 244.445156 122.134564 
L 244.659292 121.603085 
L 244.752483 121.747622 
L 244.884405 122.543113 
L 245.086018 125.600896 
L 245.421929 135.465509 
L 246.491337 169.309582 
L 247.181347 185.221715 
L 248.042608 199.842213 
L 248.426228 203.581258 
L 248.543581 203.818543 
L 248.574646 203.785331 
L 248.68567 203.300124 
L 248.867439 201.139888 
L 249.135913 194.64643 
L 249.626903 175.258651 
L 250.424624 144.868033 
L 250.956249 132.719852 
L 251.476517 125.663002 
L 251.892026 122.535332 
L 252.090461 122.070872 
L 252.178644 122.22923 
L 252.328976 123.280295 
L 252.522159 126.565595 
L 252.892142 137.974035 
L 253.898251 169.638853 
L 254.589279 185.567363 
L 255.44454 199.977978 
L 255.781417 202.841011 
L 255.864537 202.9492 
L 255.896416 202.911214 
L 256.011277 202.373851 
L 256.201918 199.95847 
L 256.483088 192.769749 
L 256.991211 172.315923 
L 257.723283 144.836642 
L 258.241574 132.903572 
L 258.747016 125.929674 
L 259.183923 122.763602 
L 259.324702 122.529402 
L 259.355623 122.560108 
L 259.46199 122.961755 
L 259.619905 124.649115 
L 259.855653 130.070424 
L 261.747179 184.763843 
L 262.589315 199.245428 
L 262.911275 201.999832 
L 262.99481 202.11479 
L 263.02723 202.076337 
L 263.122815 201.669275 
L 263.277776 199.996607 
L 263.540554 194.124355 
L 263.961667 178.347463 
L 264.812059 145.479887 
L 265.317793 133.499786 
L 265.810977 126.419855 
L 266.231886 123.226189 
L 266.367769 122.97482 
L 266.39774 123.000314 
L 266.501382 123.381305 
L 266.656337 125.034552 
L 266.888397 130.378556 
L 268.782901 185.118637 
L 269.592893 198.971845 
L 269.887063 201.250234 
L 269.944768 201.316672 
L 269.994613 201.252246 
L 270.119504 200.55103 
L 270.296072 198.123439 
L 270.59055 190.28327 
L 271.188244 165.911224 
L 271.783627 144.487614 
L 272.27887 133.051594 
L 272.753091 126.380388 
L 273.130375 123.61134 
L 273.258855 123.421814 
L 273.285591 123.45674 
L 273.386094 123.880949 
L 273.559097 125.984916 
L 273.815071 132.565963 
L 275.313141 178.082654 
L 276.162141 194.856631 
L 276.599826 200.141584 
L 276.745323 200.547276 
L 276.761779 200.534165 
L 276.857259 200.196513 
L 277.013732 198.602033 
L 277.236367 193.972042 
L 277.645741 179.436503 
L 278.570519 144.183443 
L 279.055753 133.024268 
L 279.58524 125.857214 
L 279.896809 123.916668 
L 279.986089 123.850628 
L 280.011699 123.890179 
L 280.131191 124.505055 
L 280.298877 126.860716 
L 280.578497 134.60636 
L 281.913561 175.74492 
L 282.732624 192.74474 
L 283.210644 199.181652 
L 283.377809 199.810153 
L 283.39408 199.805707 
L 283.46763 199.62464 
L 283.613893 198.423613 
L 283.823755 194.608127 
L 284.159757 183.825719 
L 285.387093 139.173356 
L 285.862483 130.062927 
L 286.326243 125.022158 
L 286.534747 124.26293 
L 286.560989 124.274472 
L 286.659695 124.61114 
L 286.809295 126.225401 
L 287.0375 131.582351 
L 288.852557 184.482192 
L 289.60513 197.479372 
L 289.854647 199.084236 
L 289.903107 199.091126 
L 289.939523 199.021192 
L 290.050288 198.386674 
L 290.236658 195.784487 
L 290.544725 187.332142 
L 292.155154 133.217429 
L 292.639216 126.511557 
L 292.948797 124.686045 
L 293.002299 124.685043 
L 293.027582 124.730064 
L 293.142745 125.375918 
L 293.326199 128.226529 
L 293.647036 137.800643 
L 294.754643 172.490624 
L 295.58724 190.758626 
L 296.076269 197.726097 
L 296.261673 198.412562 
L 296.279235 198.39593 
L 296.382892 197.976005 
L 296.557238 195.939739 
L 296.802643 190.17841 
L 297.243679 173.618318 
L 298.040198 144.034291 
L 298.592394 131.752597 
L 299.053305 126.070533 
L 299.284122 125.078719 
L 299.358249 125.208446 
L 299.490696 126.237371 
L 299.688873 130.068134 
L 300.131964 144.550982 
L 300.959078 170.25998 
L 301.762943 188.661079 
L 302.305244 196.940246 
L 302.49868 197.757074 
L 302.51623 197.74611 
L 302.596818 197.493496 
L 302.761562 195.87355 
L 302.996467 190.900337 
L 303.42272 175.608148 
L 304.284849 143.577559 
L 304.828187 131.634475 
L 305.259967 126.359461 
L 305.479428 125.469503 
L 305.551511 125.625084 
L 305.680103 126.691943 
L 305.879228 130.671437 
L 306.384699 147.383829 
L 307.210747 172.429382 
L 308.03668 190.665485 
L 308.475013 196.613961 
L 308.628345 197.111382 
L 308.646444 197.096271 
L 308.730016 196.8057 
L 308.868706 195.475015 
L 309.100228 190.808109 
L 309.461527 178.45224 
L 310.464028 141.716964 
L 310.999736 130.690476 
L 311.406788 126.274897 
L 311.547359 125.851732 
L 311.57193 125.868492 
L 311.662287 126.223484 
L 311.806757 127.939847 
L 312.049448 134.05651 
L 313.673613 182.222954 
L 314.376674 194.978276 
L 314.6204 196.490584 
L 314.695315 196.403824 
L 314.818368 195.60771 
L 315.027723 192.26663 
L 315.363178 182.133085 
L 316.659346 136.991845 
L 317.130419 128.926407 
L 317.440218 126.352743 
L 317.518028 126.23646 
L 317.565122 126.316899 
L 317.673505 127.029203 
L 317.851863 130.071584 
L 318.224709 141.703764 
L 319.196114 171.990832 
L 320.022892 190.410181 
L 320.40893 195.457053 
L 320.538189 195.896428 
L 320.575327 195.871732 
L 320.664322 195.51464 
L 320.813631 193.914746 
L 321.059516 188.509121 
L 321.502281 172.389027 
L 322.293075 143.531861 
L 322.815614 131.972651 
L 323.217727 127.148028 
L 323.380625 126.603604 
L 323.404888 126.632562 
L 323.491647 127.033035 
L 323.652099 129.207509 
L 323.928611 136.875666 
L 325.194342 175.899584 
L 325.983387 192.296788 
L 326.289058 195.208873 
L 326.355298 195.308152 
L 326.394249 195.261984 
L 326.488332 194.812109 
L 326.646691 192.91537 
L 326.903678 186.820127 
L 327.433437 166.750345 
L 328.170884 141.282202 
L 328.672393 131.014592 
L 329.043678 127.165068 
L 329.14542 126.95949 
L 329.168437 126.989337 
L 329.275714 127.580825 
L 329.439033 130.132044 
L 329.770662 140.038779 
L 330.825902 172.947874 
L 331.634328 190.694866 
L 331.96736 194.496621 
L 332.061927 194.735458 
L 332.100819 194.702009 
L 332.194975 194.281125 
L 332.353886 192.420634 
L 332.611633 186.360214 
L 333.143567 166.306715 
L 333.878251 141.093642 
L 334.360547 131.220536 
L 334.717264 127.50877 
L 334.817312 127.316406 
L 334.838997 127.347718 
L 334.947422 127.975991 
L 335.122468 130.877635 
L 335.493109 142.343615 
L 336.462372 172.46391 
L 337.265416 190.251105 
L 337.597376 193.986921 
L 337.696502 194.189599 
L 337.737756 194.123915 
L 337.838444 193.568288 
L 338.008049 191.305942 
L 338.278153 184.400322 
L 338.911555 159.995659 
L 339.493654 140.955804 
L 340.019526 130.548389 
L 340.329411 127.742193 
L 340.401557 127.664116 
L 340.42452 127.703741 
L 340.527816 128.332127 
L 340.693088 131.055341 
L 341.038776 141.590147 
L 342.058736 173.223114 
L 342.845614 190.403496 
L 343.155249 193.542771 
L 343.22411 193.661087 
L 343.265076 193.613593 
L 343.365224 193.10597 
L 343.534333 190.928403 
L 343.803877 184.154284 
L 344.43706 159.916608 
L 345.098142 138.953117 
L 345.574299 130.193815 
L 345.853464 128.01707 
L 345.899402 128.004039 
L 345.921043 128.043469 
L 346.026989 128.716311 
L 346.201447 131.741789 
L 346.585456 143.76299 
L 347.502048 172.180305 
L 348.293495 189.763502 
L 348.601499 192.990238 
L 348.689724 193.127477 
L 348.710763 193.099457 
L 348.810664 192.629305 
L 348.979733 190.511618 
L 349.249288 183.821586 
L 349.883563 159.682978 
L 350.539702 138.940252 
L 351.034508 130.029237 
L 351.291482 128.32685 
L 351.355628 128.442281 
L 351.483921 129.586723 
L 351.69815 134.318903 
L 353.703283 189.797016 
L 353.984664 192.521341 
L 354.056813 192.62893 
L 354.100185 192.559385 
L 354.207113 191.93378 
L 354.38668 189.375571 
L 354.668201 181.823371 
L 356.200265 132.885169 
L 356.560052 128.811411 
L 356.631355 128.648043 
L 356.676774 128.709033 
L 356.777627 129.384864 
L 356.959164 132.653724 
L 357.367568 145.611924 
L 358.250691 172.728844 
L 359.010781 189.419074 
L 359.294943 192.059876 
L 359.350751 192.130924 
L 359.394347 192.06924 
L 359.502071 191.454287 
L 359.682984 188.886902 
L 359.966094 181.290324 
L 361.488978 132.878982 
L 361.831357 129.090251 
L 361.900348 128.955119 
L 361.942987 129.025544 
L 362.049584 129.80224 
L 362.24146 133.49943 
L 362.731092 149.392315 
L 363.554047 174.059081 
L 364.280167 189.541725 
L 364.531395 191.601728 
L 364.590503 191.637124 
L 364.61295 191.600443 
L 364.720448 191.025936 
L 364.901261 188.524026 
L 365.184265 181.019165 
L 366.696113 133.034396 
L 367.028409 129.379995 
L 367.096399 129.261603 
L 367.139187 129.345649 
L 367.259933 130.351753 
L 367.461849 134.625837 
L 367.847383 147.18531 
L 367.847383 147.18531 
" style="fill:none;stroke:#000000;stroke-linecap:square;stroke-width:1.5;"/>
   </g>
   <g id="patch_3">
    <path d="M 10.7 273.312 
L 10.7 73.728 
" style="fill:none;stroke:#000000;stroke-linecap:square;stroke-linejoin:miter;stroke-width:0.8;"/>
   </g>
   <g id="patch_4">
    <path d="M 367.82 273.312 
L 367.82 73.728 
" style="fill:none;stroke:#000000;stroke-linecap:square;stroke-linejoin:miter;stroke-width:0.8;"/>
   </g>
   <g id="patch_5">
    <path d="M 10.7 273.312 
L 367.82 273.312 
" style="fill:none;stroke:#000000;stroke-linecap:square;stroke-linejoin:miter;stroke-width:0.8;"/>
   </g>
   <g id="patch_6">
    <path d="M 10.7 73.728 
L 367.82 73.728 
" style="fill:none;stroke:#000000;stroke-linecap:square;stroke-linejoin:miter;stroke-width:0.8;"/>
   </g>
  </g>
 </g>
 <defs>
  <clipPath id="p66f21289ab">
   <rect height="66.528" width="357.12" x="10.7" y="7.2"/>
  </clipPath>
  <clipPath id="pd512a248ee">
   <rect height="199.584" width="357.12" x="10.7" y="73.728"/>
  </clipPath>
 </defs>
</svg>
